<svg width="77" height="77" viewBox="0 0 77 77" fill="none" xmlns="http://www.w3.org/2000/svg">
<path d="M38.5001 57.75V48.125M38.5001 48.125V38.5M38.5001 48.125H28.8751M38.5001 48.125H48.1251M41.7084 9.62779C41.402 9.625 41.058 9.625 40.6648 9.625H26.309C22.7154 9.625 20.9172 9.625 19.5446 10.3244C18.3372 10.9396 17.3563 11.9205 16.7411 13.1278C16.0417 14.5004 16.0417 16.2986 16.0417 19.8923V57.109C16.0417 60.7026 16.0417 62.4985 16.7411 63.8711C17.3563 65.0785 18.3372 66.0611 19.5446 66.6763C20.9159 67.375 22.7119 67.375 26.2986 67.375L50.7017 67.375C54.2883 67.375 56.0817 67.375 57.453 66.6763C58.6603 66.0611 59.6445 65.0785 60.2597 63.8711C60.9584 62.4999 60.9584 60.7065 60.9584 57.1198V29.9199C60.9584 29.5262 60.9583 29.1817 60.9554 28.875M41.7084 9.62779C42.6248 9.63613 43.2046 9.66942 43.758 9.80229C44.4128 9.95948 45.0382 10.2194 45.6123 10.5712C46.2596 10.9679 46.8155 11.5238 47.9246 12.6328L57.9522 22.6604C59.0619 23.7702 59.6137 24.3235 60.0105 24.9711C60.3623 25.5452 60.6226 26.1712 60.7798 26.8259C60.9126 27.3791 60.9467 27.959 60.9554 28.875M41.7084 9.62779V18.6083C41.7084 22.202 41.7084 23.9976 42.4078 25.3702C43.023 26.5776 44.0039 27.5611 45.2113 28.1763C46.5825 28.875 48.3785 28.875 51.9652 28.875H60.9554M60.9554 28.875H60.959" stroke="#EEE2B8" stroke-width="5" stroke-linecap="round" stroke-linejoin="round"/>
</svg>
